<?xml version="1.0" encoding="UTF-8"?>
<svg id="Layer_2" data-name="Layer 2" xmlns="http://www.w3.org/2000/svg" viewBox="0 0 42.01 41.88">
  <defs>
    <style>
      .cls-1 {
        fill: #fefefe;
      }

      .cls-1, .cls-2, .cls-3, .cls-4, .cls-5, .cls-6, .cls-7, .cls-8, .cls-9, .cls-10, .cls-11, .cls-12, .cls-13, .cls-14 {
        stroke-width: 0px;
      }

      .cls-2 {
        fill: #f3f3f3;
      }

      .cls-3 {
        fill: #0095d7;
      }

      .cls-4 {
        fill: #f5f5f5;
      }

      .cls-5 {
        fill: none;
      }

      .cls-6 {
        fill: #f6f6f6;
      }

      .cls-15 {
        font-size: 3px;
      }

      .cls-15, .cls-16 {
        font-family: MinionVariableConcept-Roman, 'Minion Variable Concept';
        font-variation-settings: 'wght' 400, 'opsz' 11;
      }

      .cls-15, .cls-11 {
        fill: #8d84da;
      }

      .cls-7 {
        fill: #f8f8f8;
      }

      .cls-8 {
        fill: #fafafa;
      }

      .cls-9 {
        fill: #9addb9;
      }

      .cls-16 {
        fill: #a0a0a0;
        font-size: 2px;
      }

      .cls-10 {
        fill: #49a787;
      }

      .cls-12 {
        fill: #f1f1f1;
      }

      .cls-13 {
        fill: #f9f9f9;
      }

      .cls-14 {
        fill: #fbfbfb;
      }
    </style>
  </defs>
  <g id="Layer_1-2" data-name="Layer 1">
    <g>
      <g>
        <path class="cls-9" d="m10.85,20.09c-.02-1.33.06-2.55.22-3.76.04-.31.18-.58.3-.85.12-.25.38-.31.53-.11.53.7,1.34.92,2.1,1.22,1.18.46,2.42.62,3.69.7.57.04,1.15.1,1.71.24.53.13.89.47,1.07.97.07.2.15.34.39.4.25.06.39.27.46.51.05.16.1.23.28.15.35-.15.68-.08.99.1.1.06.2.11.32.1.99-.08,1.99-.13,2.98-.25.63-.07,1.26-.08,1.89-.13.91-.07,1.82-.12,2.73-.06.84.05,1.69.11,2.47.45.26.11.46.35.79.26,0,0,.02,0,.03,0,.24.07.36.43.27.84-.05.21-.22.32-.49.27-.14-.03-.27-.03-.39.04-.68.35-1.42.43-2.18.44-2.19.04-4.37-.2-6.53-.52-.51-.08-1.03-.13-1.54-.2-.2-.03-.38.02-.55.12-.29.18-.58.2-.86,0-.15-.11-.23-.07-.25.1-.03.25-.18.42-.42.49-.17.05-.23.17-.28.33-.29.97-.56,1.14-1.59,1.19-1.26.07-2.51.14-3.74.38-1.14.22-2.3.46-3.27,1.18-.06.05-.13.08-.2.11-.27.13-.42.07-.53-.21-.2-.49-.24-1.01-.28-1.52-.07-1.03-.17-2.06-.13-2.99Z"/>
        <path class="cls-1" d="m13.85,16.78c.65.14,1.26.43,1.93.52.73.1,1.47.12,2.2.23.5.07,1.01.08,1.49.24.49.17.72.52.83.99.16.54.17,1.09.11,1.65-.04.39-.15.6-.62.56-.15-.01-.29.03-.41.11-.14.11-.33.13-.46.08-.23-.1-.31,0-.4.17-.01.03-.03.07-.07.08-.22.07-.14.26-.17.4-.03.13-.07.24-.23.23-.15-.01-.18-.12-.16-.25-.03.14-.06.28-.25.25-.16-.02-.16-.15-.14-.23,0,.17-.1.3-.31.29-.16,0-.19-.13-.16-.25-.02.03,0,.09-.04.13-.07.09-.13.2-.27.15-.15-.05-.15-.17-.14-.3.01-.13.15-.28-.07-.36-.11-.05-.23-.11-.36-.08-.47.09-.95,0-1.42.04-.36.03-.72,0-.99.32-.11.13-.58.03-.81-.13-.22-.16-.34-.34-.34-.64.01-.73.07-1.46.05-2.19-.01-.34-.02-.69-.11-1.02-.06-.23-.08-.46-.08-.7,0-.26.15-.39.42-.43.34-.04.65.07.97.14Z"/>
        <path class="cls-14" d="m13.85,16.78c-.31,0-.63-.04-.94,0-.2.02-.3.12-.31.3-.01.22-.01.43.09.65.15.3.12.65.1.96-.02.38,0,.76-.02,1.15-.01.4-.16.78-.08,1.19.06.33.61.74.95.64.04-.01.09-.03.1-.05.07-.36.36-.3.6-.31.74-.01,1.49-.01,2.24,0,.05,0,.11.04.16.06-.13.16-.09.37-.13.56-.04.14-.09.25-.25.24-.18-.01-.17-.15-.16-.27-.02.11,0,.25-.16.29-.12.03-.21,0-.23-.14,0,0,0,0-.02.01-.05.17-.18.23-.34.2-.2-.04-.12-.2-.11-.37-.04.22,0,.45-.31.43-.14,0-.17-.06-.17-.29q-.02.22-.11.36c-.31.03-.31.02-.31-.33q0,.35.3.34c.21-.09.44-.09.66-.14.38-.1.78-.07,1.16-.13.18-.03.39-.09.6-.04.21.05.4-.09.62-.06.39.06.76-.1,1.15-.11.13,0,.44.06.5-.16,0-.05,0-.04,0-.04-.08.17-.19.17-.3.03-.03.13-.11.22-.25.18-.15-.04-.15-.16-.13-.27,0,.06,0,.13-.03.19-.05.11-.15.15-.26.13-.12-.02-.15-.12-.13-.21.04-.15-.01-.31.05-.45.02,0,.05,0,.05-.02.15-.28.34-.45.67-.22.05.04.14-.03.21-.08.19-.13.38-.2.62-.16.21.04.31-.09.36-.28.11-.45.16-.9.09-1.37-.02-.14-.02-.28-.03-.42.22.31.18.67.2,1.01.04.68.08,1.37-.07,2.05-.16.72-.56,1.06-1.31,1.12-1.4.12-2.82.14-4.2.45-.78.18-1.58.32-2.31.69-.18.09-.34.2-.51.29-.07-.03-.05-.08-.04-.12.29-.78.32-1.6.4-2.41.05-.61.04-1.22.06-1.83.03-1.22-.11-2.42-.28-3.62-.01-.09-.09-.22.02-.28.1-.06.19.05.27.11.17.12.35.19.54.26.26.1.51.21.77.32Z"/>
        <path class="cls-13" d="m32.09,20.23c-.14.08-.02.31-.18.32-.16.02-.08-.21-.2-.28-.03.04-.05.06-.06.09-.04.06,0,.2-.13.18-.09-.01-.07-.12-.08-.19,0-.05,0-.13-.08-.13-.07,0-.07.07-.09.13-.02.08.02.22-.12.22-.12,0-.11-.13-.12-.22-.01-.07,0-.18-.1-.17-.1.01-.06.12-.07.19-.01.07.02.18-.07.19-.13.01-.09-.12-.1-.19-.02-.07,0-.18-.09-.19-.11,0-.07.11-.09.17-.02.09-.01.22-.14.21-.12,0-.08-.13-.09-.21-.01-.06,0-.13-.08-.17-.09.02-.08.09-.09.15-.01.09-.02.2-.15.2-.13,0-.12-.12-.15-.21-.02-.08,0-.21-.11-.21-.12,0-.1.14-.11.22-.02.08.01.2-.1.21-.11,0-.11-.11-.13-.19-.02-.07.02-.2-.1-.2-.1,0-.07.12-.08.19-.02.09-.03.18-.15.18-.11,0-.12-.1-.13-.19-.01-.07.01-.18-.09-.18-.09,0-.08.09-.09.15-.01.08-.02.19-.13.19-.13,0-.09-.12-.11-.19-.02-.07-.02-.15-.09-.2-.09.01-.08.09-.1.15-.03.08,0,.21-.14.21-.11,0-.09-.12-.12-.2-.03-.09-.02-.19-.11-.25-.12.07-.09.2-.11.3-.01.06-.04.11-.1.13-.07.02-.11-.03-.12-.09-.06-.46-.39-.48-.76-.47-1.06.02-2.13.06-3.19.17-.18.02-.36,0-.55,0-.2,0-.39,0-.48.22-.01.03-.05.05-.08.07-.12-.17-.38-.03-.48-.21-.11-.19-.2-.14-.3,0-.11.15-.15.32-.07.48.09.17.29.15.41.09.72-.35,1.44-.08,2.15,0,2.42.29,4.83.57,7.28.47.54-.02,1.05-.12,1.52-.37.08-.04.18-.14.24-.02.05.1-.08.16-.16.2-.36.21-.76.34-1.17.35-.83.01-1.67.1-2.5.06-1.28-.07-2.56-.15-3.83-.36-.81-.13-1.64-.18-2.45-.31-.31-.05-.62-.03-.92.13-.24.13-.49.09-.68-.12-.17-.2-.13-.57.08-.81.17-.2.5-.3.7-.17.35.23.74.18,1.12.16,1.28-.08,2.56-.16,3.84-.28,1.17-.11,2.34-.13,3.51-.09.81.03,1.61.11,2.33.53.18.11.33.25.6.18.2-.05.19.19.19.33,0,.16-.03.31-.23.33-.03,0-.08-.02-.1-.04-.03-.06.02-.08.06-.11.21-.11.11-.16-.03-.26-.99-.66-2.1-.81-3.26-.82-.33,0-.65-.04-.98-.05-.1,0-.21-.03-.29.08.09.12.23.07.34.08.91.06,1.82.08,2.72.27.15.03.3.05.25.26-.02.06-.04.14-.11.15-.1,0-.08-.08-.09-.14-.01-.05-.01-.09-.08-.13Z"/>
        <path class="cls-8" d="m11.49,19.52c-.08-1.26.08-2.51.2-3.77-.21.39-.2.81-.26,1.22-.22,1.66-.12,3.32-.1,4.98,0,.78.1,1.57.31,2.34.03.1.13.28-.03.32-.13.03-.16-.16-.19-.27-.18-.64-.22-1.29-.28-1.95-.12-1.28-.07-2.55-.05-3.83,0-.75.1-1.5.22-2.24.03-.21.11-.42.2-.62.04-.08.08-.16.19-.15.1,0,.15.08.18.17.04.14.08.27.04.41-.2.86-.22,1.73-.26,2.6-.01.27-.03.53-.17.78Z"/>
        <path class="cls-7" d="m11.49,20.88c.21.14.3.28.28.46-.08.83.1,1.64.21,2.46.02.11.02.22-.13.37-.24-1.1-.34-2.16-.37-3.29Z"/>
        <path class="cls-7" d="m12.03,16.54c.21.68.08,2.42-.19,2.69-.08-.2.08-2.46.19-2.69Z"/>
        <path class="cls-8" d="m21.17,20.26c0,.07,0,.15-.02.22-.05.14-.11.33-.28.31-.18-.02-.1-.21-.1-.33,0-.35,0-.71-.07-1.06-.02-.08-.07-.2.07-.23.11-.02.18.06.21.16.1.3.17.61.19.93Z"/>
        <path class="cls-4" d="m24.27,20.16c.64-.14,1.29-.11,1.94-.11.09,0,.17.03.19.13,0,.06,0,.11-.06.15-.09.06-.14,0-.19-.06-.03-.04-.08-.09-.12-.04-.18.23-.3.06-.47-.03-.16-.09-.37-.03-.57,0-.24.03-.49.06-.73-.03Z"/>
        <path class="cls-4" d="m12.12,23.12c-.18-.57-.26-1.15-.22-1.74,0-.05.01-.1.07-.11.06-.02.09.03.09.08.08.59.13,1.18.07,1.78Z"/>
        <path class="cls-6" d="m27,20c.12.01.33-.05.33.22,0,.08-.01.16-.09.19-.09.04-.14-.01-.18-.08-.04-.07-.08-.18-.18-.06-.07.08-.13.16-.23.08-.06-.05-.06-.13-.05-.21.03-.12.12-.13.22-.13.05,0,.09,0,.18,0Z"/>
        <path class="cls-2" d="m12.33,19.76c-.01.1-.08.12-.17.11-.07,0-.14-.03-.13-.12,0-.09.06-.14.15-.14.09,0,.14.05.15.14Z"/>
        <path class="cls-12" d="m12.22,19.04c-.07-.23-.06-.43,0-.66.1.22.11.41,0,.66Z"/>
        <path class="cls-2" d="m20.96,21.1c.06,0,.11.01.1.07-.02.13-.11.19-.23.21-.05.01-.1-.02-.1-.07.01-.13.12-.17.22-.21Z"/>
        <path class="cls-12" d="m32.64,20.25c.07,0,.1.05.1.12,0,.07-.04.13-.12.14-.08,0-.09-.06-.09-.12,0-.07.02-.13.11-.14Z"/>
        <path class="cls-9" d="m18.34,21.3c.07.13.06.27.06.41,0,.05,0,.13.06.14.09.02.11-.06.13-.12.07-.15-.02-.34.12-.5.17.18,0,.44.18.62.14-.17.08-.39.18-.57.14.13.08.3.16.44.18-.12.08-.37.23-.49.17.36.05.62-.31.69-.65.12-1.31.16-1.97.21-.83.07-1.66.17-2.48.28-.04-.02-.04-.04,0-.06.02-.2.04-.39.06-.59,0-.06,0-.15.09-.14.07,0,.07.08.07.14,0,.1,0,.21,0,.31,0,.06.01.12.08.13.08.02.11-.05.14-.11.05-.14.06-.29.07-.44,0-.05.01-.12.09-.12.06,0,.06.06.08.11.03.11.03.22.02.33-.01.07-.02.16.08.18.09.01.15-.06.16-.13.02-.11.02-.22.03-.33,0-.05.01-.12.09-.12.06,0,.07.06.07.11,0,.04,0,.08,0,.11.02.1-.04.26.08.27.16,0,.13-.17.15-.29.02-.1-.02-.29.1-.28.14.01.09.19.09.31,0,.09-.06.22.07.24.12.02.11-.12.15-.2.07-.16-.03-.4.23-.47,0,.17,0,.34-.03.5-.01.06-.01.14.07.16.08.02.12-.06.14-.12.04-.12.07-.25.1-.38.01-.05.02-.13.1-.12.07,0,.08.08.08.13,0,.09-.02.19-.03.28,0,.07-.01.14.07.17.09.03.15-.04.17-.11.04-.12.06-.26.09-.38.01-.06,0-.15.09-.14.08,0,.08.1.08.16,0,.09-.01.19-.02.28,0,.05-.03.13.05.14.07.01.09-.06.11-.11.02-.09.03-.19.05-.28.02-.07.01-.2.13-.18.1.02.07.14.07.22,0,.02,0,.04,0,.06,0,.1-.08.25.04.27.15.02.11-.16.14-.26.04-.12,0-.27.14-.35Z"/>
        <path class="cls-9" d="m20.28,21.62c0,.27-.41.71-.77.8-.48.12-.97.11-1.45.17-1.29.17-2.59.26-3.88.48-.49.09-.95.27-1.43.4-.07.02-.17.12-.22,0-.04-.09.07-.14.14-.19.4-.28.87-.38,1.34-.48,1.26-.28,2.56-.34,3.84-.54.42-.07.86-.08,1.29-.12.38-.04.7-.19.92-.51.04-.06.09-.13.18-.12.05,0,.05.05.04.09Z"/>
        <path class="cls-9" d="m14.08,22.13c0,.08,0,.17-.03.25-.03.09,0,.25-.15.22-.11-.02-.11-.16-.1-.26,0-.14.03-.28.04-.42,0-.07,0-.17.1-.17.12,0,.11.11.12.19,0,.06,0,.13,0,.2,0,0,0,0,0,0Z"/>
        <path class="cls-9" d="m14.71,22.36s0,.04,0,.06c-.07.01-.13.02-.2.03-.17.04-.26,0-.22-.2.03-.15.05-.3.07-.45.01-.06,0-.16.09-.15.1,0,.08.11.09.18,0,.1,0,.21,0,.31,0,.11.03.21.17.22Z"/>
        <path class="cls-9" d="m13.61,22.31c0,.1,0,.17-.05.23-.04.05-.08.08-.15.07-.07-.02-.08-.08-.07-.14,0-.07.02-.13.03-.19.03-.11-.04-.31.12-.29.13.01.1.22.12.32Z"/>
        <path class="cls-9" d="m13.03,22.04c.1.21.08.43.06.64,0,.06-.04.11-.11.11-.06,0-.1-.04-.09-.09.02-.22.01-.46.14-.66Z"/>
        <path class="cls-9" d="m12.74,22.12c.12.27.02.47-.03.67-.01.04-.05.09-.1.07-.03,0-.06-.06-.05-.08.05-.21,0-.44.19-.65Z"/>
        <path class="cls-9" d="m19.94,21.37c-.04.09,0,.23-.13.25-.11.02-.08-.1-.07-.17.02-.1.02-.23.14-.24.09,0,.06.1.06.16Z"/>
        <path class="cls-9" d="m28.47,19.78c-.3.08-.61.01-.91.13,0-.04-.01-.07-.02-.11.3-.05.6-.09.9-.14,0,.04.01.08.02.12Z"/>
      </g>
      <path class="cls-5" d="m40.49,16.25C38.44,7.25,30.38.5,20.76.5S3.09,7.25,1.03,16.25c-.33,1.45-.52,2.95-.52,4.5s.19,3.05.52,4.5c2.05,9,10.11,15.75,19.73,15.75s17.67-6.75,19.73-15.75c.33-1.45.52-2.95.52-4.5s-.19-3.05-.52-4.5Z"/>
      <path class="cls-10" d="m40.49,25.25c-2.05,9-10.11,15.75-19.73,15.75S3.09,34.25,1.03,25.25h-.52c2.06,9.28,10.35,16.25,20.24,16.25s18.18-6.97,20.24-16.25h-.52Z"/>
      <path class="cls-10" d="m20.76.5c9.62,0,17.67,6.75,19.73,15.75h.52C38.94,6.97,30.66,0,20.76,0S2.58,6.97.52,16.25h.52C3.09,7.25,11.15.5,20.76.5Z"/>
      <g>
        <path class="cls-3" d="m3.48,16.25C5.49,8.57,12.46,2.88,20.76,2.88s15.28,5.69,17.28,13.38h.26c-2.01-7.82-9.1-13.62-17.54-13.62S5.24,8.43,3.23,16.25h.26Z"/>
        <path class="cls-3" d="m38.04,25.25c-2,7.68-8.98,13.38-17.28,13.38s-15.28-5.69-17.28-13.38h-.26c2.01,7.82,9.1,13.62,17.54,13.62s15.53-5.8,17.54-13.62h-.26Z"/>
      </g>
      <g>
        <path class="cls-11" d="m11.24,12.59l-1.97-1.99.55-.54c.7-.69,1.37-.72,2.01-.07.3.31.45.65.44,1.03-.01.38-.18.73-.5,1.05l-.53.52Zm-1.53-2.01l1.55,1.57.3-.29c.26-.26.4-.53.4-.81s-.12-.55-.37-.81c-.5-.51-1.03-.5-1.57.04l-.31.31Z"/>
        <path class="cls-11" d="m14.63,9.91c-.35.2-.69.24-1.02.13s-.61-.35-.81-.71c-.22-.39-.29-.77-.21-1.12.08-.35.3-.63.67-.84.34-.19.67-.23,1.01-.12.33.11.6.35.81.72.22.4.3.77.21,1.12-.08.35-.3.62-.65.82Zm-1.25-2.28c-.26.14-.41.35-.47.63-.06.27,0,.56.17.86.17.3.38.5.64.59.26.09.51.07.76-.07.27-.15.43-.36.49-.62.06-.26,0-.55-.18-.86-.18-.32-.4-.53-.65-.62-.25-.09-.5-.06-.77.08Z"/>
        <path class="cls-11" d="m18.52,8.29c-.17.16-.41.28-.71.36-.39.1-.73.06-1.02-.13-.3-.19-.5-.48-.61-.88-.12-.43-.08-.82.11-1.15.19-.34.48-.56.88-.66.26-.07.48-.09.67-.06l.09.34c-.22-.06-.45-.05-.69,0-.31.08-.53.25-.67.51-.14.26-.16.56-.07.91.09.33.25.57.48.72s.5.18.79.1c.27-.07.49-.2.66-.37l.08.31Z"/>
        <path class="cls-11" d="m21.09,5.72l-.81.03.11,2.5h-.33s-.11-2.49-.11-2.49l-.81.03v-.3s1.93-.08,1.93-.08v.3Z"/>
        <path class="cls-11" d="m23.02,8.5c-.39-.07-.68-.26-.87-.56-.19-.3-.24-.66-.17-1.07.08-.44.27-.77.56-.99.29-.22.64-.29,1.05-.21.38.07.66.26.85.56.18.3.24.66.16,1.07-.08.45-.27.78-.56,1-.29.22-.63.29-1.03.21Zm.5-2.55c-.29-.05-.54,0-.76.18-.22.17-.36.43-.42.77-.06.34-.03.63.11.87.14.24.35.39.63.44.3.06.56,0,.77-.16.21-.16.35-.42.42-.78.07-.36.04-.66-.1-.89-.13-.23-.35-.37-.64-.43Z"/>
        <path class="cls-11" d="m27.08,9.9l-.35-.17-.1-.91c0-.08-.02-.16-.04-.22-.01-.06-.03-.12-.06-.17-.02-.05-.06-.09-.09-.12-.04-.03-.08-.06-.14-.09l-.24-.11-.5,1.08-.3-.14,1.18-2.54.76.35c.11.05.21.11.29.18.08.07.14.15.19.24.04.09.06.18.06.29s-.03.21-.08.32c-.04.09-.09.16-.15.22s-.13.11-.21.15c-.08.04-.16.06-.25.07-.09,0-.18,0-.28-.01h0s.06.08.08.12c.02.04.04.08.05.13.01.05.02.1.03.15,0,.05.02.12.03.19l.12.99Zm-.47-2.98l-.43.92.4.19c.07.04.15.06.22.06.07,0,.14,0,.21-.02.07-.02.13-.05.18-.1.05-.05.1-.11.13-.19.06-.14.07-.26.02-.38-.05-.12-.16-.21-.33-.29l-.41-.19Z"/>
        <path class="cls-11" d="m28.96,11.28l-1.19-.89,1.69-2.24,1.14.86-.18.24-.87-.66-.56.74.81.61-.18.24-.81-.61-.59.78.92.7-.18.24Z"/>
        <path class="cls-11" d="m29.68,11.79l.29-.26c0,.06,0,.12.03.19s.04.13.07.2c.03.07.06.13.1.19.04.06.07.11.11.15.13.15.26.24.38.27.12.02.24,0,.34-.1.06-.05.1-.11.12-.17.02-.06.03-.13.02-.21,0-.07-.02-.16-.04-.24s-.04-.18-.07-.28c-.03-.11-.05-.21-.07-.3-.02-.1-.02-.19-.02-.28,0-.09.02-.17.06-.25.03-.08.09-.15.17-.22.1-.08.2-.14.31-.16.11-.02.22-.02.32.01.11.03.21.08.31.14s.19.15.27.24c.18.21.29.38.32.52l-.28.24c-.02-.2-.12-.4-.29-.59-.05-.05-.1-.1-.16-.15-.06-.04-.12-.08-.18-.09-.06-.02-.13-.03-.19-.02-.06,0-.12.04-.18.09-.05.05-.09.1-.11.15-.02.05-.03.12-.03.18,0,.07.01.14.03.23.02.08.04.18.07.28.03.11.05.21.07.32.02.1.02.2.02.3s-.02.18-.06.27c-.04.08-.09.16-.17.23-.1.09-.21.15-.32.17s-.21.02-.32,0-.21-.08-.31-.15c-.1-.07-.19-.16-.28-.26-.03-.03-.06-.08-.1-.13s-.07-.11-.11-.17c-.03-.06-.06-.12-.09-.18-.02-.06-.04-.11-.05-.15Z"/>
      </g>
      <text class="cls-15" transform="translate(11.31 31.39) rotate(39.4)"><tspan x="0" y="0">reminder</tspan></text>
      <text class="cls-16" transform="translate(0 21.44)"><tspan x="0" y="0">For</tspan></text>
      <text class="cls-16" transform="translate(37.83 21.44)"><tspan x="0" y="0">PNU</tspan></text>
    </g>
  </g>
</svg>